# xmcd
#
# Track frame offsets: 
#        150
#        20832
#        35463
#        54981
#        83389
#        97901
#        115392
#        138571
#        156878
#
# Disc length: 2446 seconds
#
# Revision: 1
# Processed by: cddbd v1.5.2PL0 Copyright (c) Steve Scherf et al.
# Submitted via: ExactAudioCopy v0.99pb5
#
DISCID=6a098c09
DTITLE=T Bird and the Breaks - Learn About It
DYEAR=2008
DGENRE=R&B
TTITLE0=Two Tone Cadillac
TTITLE1=Esmerelda
TTITLE2=Blackberry Brandy
TTITLE3=All the Blame
TTITLE4=Stand Up
TTITLE5=Juice
TTITLE6=Take Time
TTITLE7=Baby Bottle
TTITLE8=Sunday on my Own
EXTD=
EXTT0=
EXTT1=
EXTT2=
EXTT3=
EXTT4=
EXTT5=
EXTT6=
EXTT7=
EXTT8=
PLAYORDER=
